<svg width="203" height="62" viewBox="0 0 203 62" fill="none" xmlns="http://www.w3.org/2000/svg">
<g clip-path="url(#clip0_110_236)">
<path d="M7.04001 61.3034C4.78001 61.4134 3.04001 60.8334 1.82001 59.5634C0.600007 58.2934 0 56.6634 0 54.6834C0 53.1534 0.42002 51.8234 1.27002 50.6934C2.12002 49.5634 3.39003 48.9434 5.09003 48.8234L7.47 48.6534C9.51 48.5434 11 48.0434 11.97 47.1634C12.93 46.2834 13.41 44.8334 13.41 42.7934V7.92345C13.41 5.32345 14.09 3.35345 15.45 2.02345C16.8 0.703447 18.72 0.0334473 21.21 0.0334473C23.7 0.0334473 25.62 0.703447 26.98 2.02345C28.34 3.35345 29.02 5.32345 29.02 7.92345V42.5434C29.02 46.4434 28.31 49.7434 26.9 52.4334C25.49 55.1234 23.38 57.1834 20.58 58.6234C17.78 60.0634 14.29 60.9034 10.1 61.1234L7.05002 61.2934L7.04001 61.3034Z" fill="white"/>
<path d="M62.7836 6.99295C62.4736 6.93295 62.1536 6.80295 61.8536 6.81295C55.0536 7.06295 49.2936 9.60295 44.6636 14.6329C37.1736 22.7829 36.3836 35.0329 42.5936 44.1129C45.5336 48.4129 49.3636 51.673 54.5336 52.993C60.4836 54.513 65.8236 53.1829 70.4936 49.2129C72.6936 47.3429 74.3236 45.0029 75.2236 42.2729C76.1936 39.3129 76.2736 36.2529 75.2836 33.2529C73.7336 28.5429 70.6536 25.2929 65.9036 23.7629C60.9636 22.1729 55.3536 24.2429 52.3636 28.4929C49.4536 32.6229 49.8036 38.273 53.4936 41.923C58.0736 46.443 64.1936 44.6129 66.4336 40.3729C67.7036 37.9629 66.8536 34.5629 64.8236 33.2529C64.4636 33.0129 64.1036 32.7329 63.8336 32.3929C63.1136 31.4829 63.2036 30.4129 64.0436 29.4829C64.7136 28.7329 65.6736 28.6229 66.6436 29.1729C71.1836 31.7429 72.7836 37.983 70.2836 42.563C67.1736 48.253 60.3136 50.293 55.1136 48.173C50.4336 46.273 47.5036 42.7429 46.3536 37.813C45.1736 32.7629 46.5136 28.2429 49.8836 24.4729C54.0436 19.8429 59.3836 18.0129 65.5436 19.1229C69.8636 19.8929 73.4136 22.1429 76.1036 25.6229C80.3836 31.1429 81.4636 37.2929 79.2836 43.9329C78.7836 45.4429 77.8736 46.8229 77.1136 48.2529C76.8136 48.8129 76.4436 49.3429 76.1436 49.9329C77.5536 49.1229 78.6936 48.0029 79.7836 46.8229C83.5936 42.6929 85.6336 37.8029 86.0636 32.2229C86.0936 31.7829 86.1036 31.3429 86.1636 30.9029C86.3236 29.6129 87.2336 28.8329 88.4936 28.8929C89.6536 28.9429 90.5236 29.8229 90.5236 31.0729C90.5336 33.4729 90.1836 35.843 89.5536 38.153C88.7636 41.093 87.4936 43.8129 85.8036 46.3429C82.0236 52.0129 76.8436 55.803 70.3336 57.763C65.4736 59.233 60.5436 59.383 55.6236 58.173C50.5236 56.913 45.9936 54.533 42.3236 50.743C35.8936 44.113 33.1636 36.1829 34.2536 26.9629C34.8136 22.2129 36.5636 17.9229 39.3536 14.0829C43.1536 8.86295 48.1836 5.32295 54.4136 3.51295C59.2536 2.10295 64.1336 1.99295 69.0236 3.18295C72.8836 4.12295 76.3736 5.85295 79.5436 8.29295C83.2136 11.1129 85.9136 14.6429 87.9036 18.7829C88.3936 19.8129 88.2936 20.7029 87.5536 21.5329C86.6236 22.5729 84.9236 22.3829 84.1536 21.1329C83.5636 20.1629 83.1236 19.0929 82.5136 18.1329C81.7836 16.9929 81.0536 15.8029 80.1036 14.8629C79.2936 14.0529 78.2236 13.4329 77.1636 12.9529C72.7036 10.9529 68.0536 10.4329 63.2636 11.4829C60.5836 12.0729 58.0836 13.1329 55.8036 14.6829C55.0336 15.2029 54.2136 15.4329 53.3236 14.9429C51.7536 14.0829 51.6236 12.1929 53.1136 11.1629C54.9936 9.85295 57.0136 8.80295 59.1936 8.07295C60.3736 7.67295 61.5736 7.34295 62.7636 6.98295C62.8136 6.95295 62.8636 6.92295 62.9236 6.89295C62.8736 6.93295 62.8236 6.96295 62.7736 7.00295L62.7836 6.99295Z" fill="white"/>
<path d="M49.9636 20.383C49.2936 21.463 47.9836 21.753 46.9036 21.063C45.8736 20.403 45.5636 19.093 46.2036 18.083C46.8436 17.063 48.3236 16.723 49.3036 17.373C50.2536 18.003 50.5636 19.423 49.9636 20.393V20.383Z" fill="white"/>
<path d="M60.9336 36.803C62.0336 37.493 62.2936 38.623 61.6236 39.733C60.9236 40.883 59.7536 41.163 58.6236 40.443C57.4936 39.723 57.2536 38.563 57.9936 37.423C58.6936 36.353 59.8336 36.113 60.9336 36.813V36.803Z" fill="white"/>
<path d="M56.0235 30.9829C56.6835 29.8829 58.0035 29.5529 59.0535 30.2129C60.0735 30.8529 60.3635 32.1329 59.7235 33.1829C59.0635 34.2829 57.7435 34.6129 56.6935 33.9529C55.6835 33.3129 55.3835 32.0329 56.0235 30.9829Z" fill="white"/>
<path d="M74.2237 17.743C74.8937 16.703 76.1837 16.413 77.2037 17.073C78.2537 17.753 78.5037 19.083 77.7737 20.163C77.0837 21.183 75.7837 21.443 74.7737 20.753C73.7737 20.073 73.5437 18.793 74.2237 17.743Z" fill="white"/>
<path d="M120.89 61.35C118.4 61.35 116.48 60.66 115.12 59.27C113.76 57.88 113.08 55.89 113.08 53.29V30.04L116.3 38.61L96.7804 10.52C95.8204 9.16 95.4104 7.65 95.5504 5.98C95.6904 4.31 96.3704 2.9 97.5904 1.74C98.8104 0.58 100.55 0 102.82 0C104.4 0 105.84 0.38 107.15 1.15C108.45 1.91 109.67 3.2 110.8 5.01L122.68 22.49H119.63L131.51 4.92C132.7 3.11 133.91 1.84 135.16 1.1C136.39 0.37 137.86 0 139.56 0C141.71 0 143.38 0.54 144.57 1.61C145.76 2.69 146.39 4.04 146.48 5.68C146.57 7.32 146.04 8.99 144.91 10.69L125.56 38.61L128.7 30.04V53.29C128.7 58.67 126.1 61.35 120.89 61.35Z" fill="white"/>
<path d="M176.857 61.35C174.367 61.35 172.447 60.66 171.087 59.27C169.727 57.88 169.047 55.89 169.047 53.29V30.04L172.267 38.61L152.747 10.52C151.787 9.16 151.377 7.65 151.517 5.98C151.657 4.31 152.337 2.9 153.557 1.74C154.787 0.58 156.527 0 158.787 0C160.367 0 161.817 0.38 163.117 1.15C164.417 1.91 165.637 3.2 166.767 5.01L178.647 22.49H175.597L187.477 4.92C188.667 3.11 189.877 1.84 191.127 1.1C192.357 0.37 193.837 0 195.527 0C197.677 0 199.347 0.54 200.537 1.61C201.727 2.69 202.357 4.04 202.447 5.68C202.537 7.32 202.007 8.99 200.877 10.69L181.527 38.61L184.667 30.04V53.29C184.667 58.67 182.067 61.35 176.857 61.35Z" fill="white"/>
</g>
<defs>
<clipPath id="clip0_110_236">
<rect width="202.457" height="61.35" fill="white"/>
</clipPath>
</defs>
</svg>
